<?xml version="1.0" encoding="utf-8"?>
<!-- Generator: Adobe Illustrator 22.0.0, SVG Export Plug-In . SVG Version: 6.00 Build 0)  -->
<svg version="1.1" id="Layer_1" xmlns="http://www.w3.org/2000/svg" xmlns:xlink="http://www.w3.org/1999/xlink" x="0px" y="0px"
	 viewBox="0 0 640 480" style="enable-background:new 0 0 640 480;" xml:space="preserve">
<style type="text/css">
	.st0{fill:#78909C;}
	.st1{fill:#F9F9F9;}
</style>
<title>Mesa de trabajo 1</title>
<g id="Capa_1">
	<rect class="st0" width="640" height="480"/>
	<path class="st1" d="M526,254.5c0,104.3-87.8,177.1-161.3,191.7c-10.9,2.2-22.1,3.2-33.2,2.8C252.7,446.3,137,376.9,137,254.5
		C137,147.1,224.1,60,331.5,60c82.6,0,138,57.1,143.9,63.6C484.2,133.3,526,182.4,526,254.5z"/>
</g>
<g id="Capa_2">
	<path class="st0" d="M617,286l-231,71"/>
	<rect x="298" y="165" transform="matrix(0.6592 -0.752 0.752 0.6592 -0.5725 372.7623)" class="st0" width="226" height="44"/>
	<rect x="401" y="205" transform="matrix(0.6592 -0.752 0.752 0.6592 -94.9475 426.4282)" class="st0" width="44" height="226"/>
	
		<rect x="267.5" y="321.3" transform="matrix(0.6592 -0.752 0.752 0.6592 -111.1082 441.3925)" class="st0" width="327.8" height="44"/>
</g>
</svg>
